<svg width="298" height="146" viewBox="0 0 298 146" fill="none" xmlns="http://www.w3.org/2000/svg">
<path d="M67.9156 126V86H75.1156V126H67.9156ZM71.5156 78.8C70.1823 78.8 69.049 78.3333 68.1156 77.4C67.1823 76.4667 66.7156 75.3333 66.7156 74C66.7156 72.6222 67.1823 71.4889 68.1156 70.6C69.049 69.6667 70.1823 69.2 71.5156 69.2C72.8934 69.2 74.0267 69.6667 74.9156 70.6C75.849 71.4889 76.3156 72.6222 76.3156 74C76.3156 75.3333 75.849 76.4667 74.9156 77.4C74.0267 78.3333 72.8934 78.8 71.5156 78.8ZM87.8844 126V86H94.551V92.4667C96.0177 90.1111 97.9066 88.3111 100.218 87.0667C102.573 85.8222 105.107 85.2 107.818 85.2C110.662 85.2 113.284 85.9111 115.684 87.3333C118.129 88.7111 120.107 90.7333 121.618 93.4C123.129 96.0222 123.884 99.2222 123.884 103V126H116.684V104C116.684 100.844 115.729 98.0667 113.818 95.6667C111.951 93.2222 109.307 92 105.884 92C103.084 92 100.573 93.0222 98.351 95.0667C96.1733 97.0667 95.0844 99.9778 95.0844 103.8V126H87.8844ZM137.884 126V66H167.484V72.8H145.484V85.6H162.818V92.4H145.484V119.2H167.484V126H137.884ZM193.049 126.533C189.405 126.533 186.071 125.622 183.049 123.8C180.027 121.933 177.605 119.444 175.782 116.333C174.005 113.222 173.116 109.778 173.116 106C173.116 102.222 174.005 98.7778 175.782 95.6667C177.605 92.5556 180.027 90.0889 183.049 88.2667C186.071 86.4 189.405 85.4667 193.049 85.4667C195.805 85.4667 198.382 85.9778 200.782 87C203.227 88.0222 205.338 89.4444 207.116 91.2667V86H213.782V126H207.116V120.733C205.338 122.511 203.227 123.933 200.782 125C198.382 126.022 195.805 126.533 193.049 126.533ZM193.982 120C196.516 120 198.805 119.378 200.849 118.133C202.938 116.844 204.582 115.156 205.782 113.067C207.027 110.933 207.649 108.578 207.649 106C207.649 103.422 207.027 101.089 205.782 99C204.582 96.8667 202.938 95.1778 200.849 93.9333C198.805 92.6444 196.516 92 193.982 92C191.449 92 189.138 92.6444 187.049 93.9333C185.005 95.1778 183.36 96.8667 182.116 99C180.916 101.089 180.316 103.422 180.316 106C180.316 108.578 180.916 110.933 182.116 113.067C183.36 115.156 185.005 116.844 187.049 118.133C189.138 119.378 191.449 120 193.982 120ZM236.874 126.8C234.83 126.8 232.63 126.422 230.274 125.667C227.963 124.867 225.963 123.556 224.274 121.733L226.274 113.867C227.518 115.956 229.118 117.622 231.074 118.867C233.03 120.067 235.118 120.667 237.341 120.667C239.474 120.667 241.074 120.156 242.141 119.133C243.207 118.067 243.741 116.778 243.741 115.267C243.741 113.533 243.163 112.267 242.007 111.467C240.896 110.667 239.896 110.111 239.007 109.8L233.607 107.733C232.63 107.333 231.452 106.756 230.074 106C228.696 105.2 227.496 104.067 226.474 102.6C225.452 101.133 224.941 99.2222 224.941 96.8667C224.941 94.7333 225.452 92.7778 226.474 91C227.496 89.2222 228.941 87.8222 230.807 86.8C232.674 85.7333 234.874 85.2 237.407 85.2C239.407 85.2 241.496 85.5556 243.674 86.2667C245.852 86.9778 247.696 88.1778 249.207 89.8667L247.207 97.7333C246.141 95.7778 244.696 94.2222 242.874 93.0667C241.052 91.9111 239.163 91.3333 237.207 91.3333C235.385 91.3333 233.941 91.8444 232.874 92.8667C231.852 93.8889 231.341 95.0667 231.341 96.4C231.341 97.4667 231.696 98.4222 232.407 99.2667C233.118 100.111 234.185 100.8 235.607 101.333L241.007 103.4C241.985 103.756 243.185 104.333 244.607 105.133C246.074 105.933 247.363 107.089 248.474 108.6C249.585 110.111 250.141 112.156 250.141 114.733C250.141 118.333 248.874 121.244 246.341 123.467C243.852 125.689 240.696 126.8 236.874 126.8ZM258.905 146L271.905 120.133L254.972 86H263.105L271.639 103.333C272.394 104.889 273.127 106.422 273.839 107.933C274.55 109.444 275.261 111.267 275.972 113.4C276.727 111.267 277.439 109.444 278.105 107.933C278.816 106.378 279.572 104.844 280.372 103.333L289.039 86H296.705L266.705 146H258.905Z" fill="black"/>
<path d="M94.5946 31.5H0V0H126L94.5946 31.5Z" fill="black"/>
<path d="M48.4324 79.3193H0V47.4398H80.2162L48.4324 79.3193Z" fill="black"/>
<path d="M28.3784 97.5361L0 126V97.5361H28.3784Z" fill="black"/>
</svg>
