<svg width="252" height="104" viewBox="0 0 252 104" fill="none" xmlns="http://www.w3.org/2000/svg">
<path d="M44.039 86V50.1667H50.489V86H44.039ZM47.264 43.7167C46.0696 43.7167 45.0543 43.2986 44.2182 42.4625C43.3821 41.6264 42.964 40.6111 42.964 39.4167C42.964 38.1824 43.3821 37.1671 44.2182 36.3708C45.0543 35.5347 46.0696 35.1167 47.264 35.1167C48.4983 35.1167 49.5135 35.5347 50.3098 36.3708C51.1459 37.1671 51.564 38.1824 51.564 39.4167C51.564 40.6111 51.1459 41.6264 50.3098 42.4625C49.5135 43.2986 48.4983 43.7167 47.264 43.7167ZM61.9277 86V50.1667H67.8999V55.9597C69.2138 53.8495 70.9059 52.237 72.9763 51.1222C75.0865 50.0074 77.3559 49.45 79.7846 49.45C82.3328 49.45 84.6818 50.087 86.8318 51.3611C89.0217 52.5954 90.7934 54.4069 92.1471 56.7958C93.5008 59.1449 94.1777 62.0116 94.1777 65.3958V86H87.7277V66.2917C87.7277 63.4648 86.8717 60.9764 85.1596 58.8264C83.4874 56.6366 81.1184 55.5417 78.0527 55.5417C75.5443 55.5417 73.2948 56.4574 71.3041 58.2889C69.3531 60.0806 68.3777 62.6884 68.3777 66.1125V86H61.9277ZM106.719 86V32.25H133.236V38.3417H113.528V49.8083H129.055V55.9H113.528V79.9083H133.236V86H106.719ZM156.138 86.4778C152.873 86.4778 149.887 85.6616 147.179 84.0292C144.472 82.3569 142.302 80.1273 140.67 77.3403C139.077 74.5532 138.281 71.4676 138.281 68.0833C138.281 64.6991 139.077 61.6134 140.67 58.8264C142.302 56.0394 144.472 53.8296 147.179 52.1972C149.887 50.525 152.873 49.6889 156.138 49.6889C158.606 49.6889 160.915 50.1468 163.065 51.0625C165.255 51.9782 167.146 53.2523 168.739 54.8847V50.1667H174.711V86H168.739V81.2819C167.146 82.8745 165.255 84.1486 163.065 85.1042C160.915 86.0199 158.606 86.4778 156.138 86.4778ZM156.974 80.625C159.243 80.625 161.294 80.0676 163.125 78.9528C164.996 77.7981 166.47 76.2852 167.545 74.4139C168.659 72.5028 169.217 70.3926 169.217 68.0833C169.217 65.7741 168.659 63.6838 167.545 61.8125C166.47 59.9014 164.996 58.3884 163.125 57.2736C161.294 56.119 159.243 55.5417 156.974 55.5417C154.704 55.5417 152.634 56.119 150.763 57.2736C148.931 58.3884 147.458 59.9014 146.343 61.8125C145.268 63.6838 144.731 65.7741 144.731 68.0833C144.731 70.3926 145.268 72.5028 146.343 74.4139C147.458 76.2852 148.931 77.7981 150.763 78.9528C152.634 80.0676 154.704 80.625 156.974 80.625ZM195.398 86.7167C193.566 86.7167 191.595 86.3782 189.485 85.7014C187.415 84.9847 185.623 83.8102 184.11 82.1778L185.902 75.1306C187.016 77.0019 188.45 78.4949 190.202 79.6097C191.954 80.6847 193.825 81.2222 195.816 81.2222C197.727 81.2222 199.16 80.7644 200.116 79.8486C201.071 78.8931 201.549 77.7384 201.549 76.3847C201.549 74.8319 201.031 73.6972 199.996 72.9806C199.001 72.2639 198.105 71.7662 197.309 71.4875L192.471 69.6361C191.595 69.2778 190.54 68.7602 189.306 68.0833C188.072 67.3667 186.997 66.3514 186.081 65.0375C185.165 63.7236 184.707 62.0116 184.707 59.9014C184.707 57.9903 185.165 56.2384 186.081 54.6458C186.997 53.0532 188.291 51.7991 189.963 50.8833C191.635 49.9278 193.606 49.45 195.875 49.45C197.667 49.45 199.538 49.7685 201.489 50.4056C203.44 51.0426 205.092 52.1176 206.446 53.6306L204.654 60.6778C203.699 58.9259 202.405 57.5324 200.773 56.4972C199.14 55.462 197.448 54.9444 195.696 54.9444C194.064 54.9444 192.77 55.4023 191.814 56.3181C190.898 57.2338 190.441 58.2889 190.441 59.4833C190.441 60.4389 190.759 61.2949 191.396 62.0514C192.033 62.8079 192.989 63.425 194.263 63.9028L199.1 65.7542C199.976 66.0727 201.051 66.5903 202.325 67.3069C203.639 68.0236 204.794 69.0588 205.789 70.4125C206.785 71.7662 207.282 73.5977 207.282 75.9069C207.282 79.1319 206.148 81.7398 203.878 83.7306C201.648 85.7213 198.822 86.7167 195.398 86.7167ZM215.134 103.917L226.78 80.7444L211.61 50.1667H218.896L226.541 65.6944C227.218 67.088 227.875 68.4616 228.512 69.8153C229.149 71.169 229.786 72.8014 230.423 74.7125C231.1 72.8014 231.737 71.169 232.334 69.8153C232.971 68.4218 233.648 67.0481 234.364 65.6944L242.128 50.1667H248.996L222.121 103.917H215.134Z" fill="black"/>
<path d="M69 22H0V12L69 12V22Z" fill="black"/>
<path d="M22 35H0V25L22 25V35Z" fill="black"/>
<path d="M15 48H0V38L15 38V48Z" fill="black"/>
<path d="M35 61H0V51L35 51V61Z" fill="black"/>
<path d="M15 74H0V64H15V74Z" fill="black"/>
<path d="M15 87H0V77H15V87Z" fill="black"/>
</svg>
